<svg xmlns="http://www.w3.org/2000/svg" width="96" height="48" viewBox="0 0 96 48"><g fill="#FFF"><path d="M21.97 14.977l-4.558 3.414h-4.164c-.687 0-1.25.565-1.25 1.25v8.704c0 .687.563 1.248 1.25 1.248h4.164l4.56 3.414c.83.625 1.997.042 1.997-.998v-16.03c0-1.04-1.19-1.623-2-1zm6.12 2.04c-.56-.562-1.5-.562-2.06 0-.562.562-.562 1.5 0 2.06 2.706 2.707 2.706 7.1 0 9.806-.562.56-.562 1.498 0 2.06.292.29.667.417 1.02.417.354 0 .75-.147 1.02-.438 3.872-3.81 3.872-10.055.02-13.905z"/><path d="M29.713 13.75c-.56.56-.56 1.498 0 2.06 2.188 2.186 3.394 5.08 3.394 8.18 0 3.102-1.206 5.994-3.394 8.18-.56.562-.56 1.5 0 2.062.293.29.668.438 1.02.438.376 0 .75-.146 1.022-.418C34.48 31.525 36 27.882 36 24.012c0-3.873-1.498-7.494-4.245-10.242-.542-.582-1.458-.582-2.042-.02z"/></g><path fill="#FFF" d="M69.97 14.977l-4.558 3.414h-4.164c-.688 0-1.248.565-1.248 1.25v8.704c0 .687.562 1.248 1.248 1.248h4.164l4.56 3.414c.83.625 1.997.042 1.997-.998v-16.03c0-1.04-1.19-1.623-2-1z"/></svg>