<svg xmlns="http://www.w3.org/2000/svg" width="48" height="48" viewBox="0 0 48 48"><g fill="#FFF"><path d="M20.964 28.774c.993-.01 1.97-.16 2.903-.446.97-.295 1.866-.73 2.67-1.29 1.222-.85 2.212-1.937 2.942-3.226l.145-.293c.25-.51.48-1.057.662-1.584.045-.128.084-.28.126-.443.12-.466.28-1.078.72-1.605l-.196-1.867c-.038-.364.01-.754.132-1.097.176-.49.507-.868.932-1.065.135-.062.28-.095.43-.095h.022c.033 0 .225.007.5.036.105-.65.224-1.365.235-1.436-.25-.853-1.938-1.38-2.02-1.405-.3.052-.653.395-.745.95l-.39 2.352-.006.003c-.004 0-.007.002-.01.004h-.004c-.045.018-.098.04-.15.067-.483.247-.74.695-.99 1.13-.092.156-.185.318-.286.466-.34.492-.732.993-1.134 1.448-.087.1-.166.188-.244.273-1.16 1.168-2.538 2.04-4.098 2.592-2.262.8-4.82.797-7.205-.01-.152-.05-.304-.105-.453-.162-.163-.063-.366-.142-.583-.215-.375-.126-.854-.263-1.316-.263-.286 0-.566.052-.81.19-.212.12-.384.3-.512.53-.505.91-.115 1.65.382 2.315.452.604.97 1.136 1.538 1.58 1.088.85 2.302 1.505 3.608 1.946 1.048.356 2.124.56 3.2.618z"/><path d="M35.03 20.146l-.267-2.533c-.345-.562-1.386-.743-1.953-.8l-.013-.002h-.013c-.214-.022-.354-.024-.354-.024-.39.18-.52.734-.478 1.13l.248 2.362-.007.006-.004.002c-.04.03-.085.064-.13.105-.402.37-.532.873-.66 1.36-.044.174-.09.354-.15.523-.196.564-.44 1.15-.708 1.695l-.163.328c-.317.56-.68 1.087-1.082 1.577-.018.02-.034.04-.05.06l-.055.064c-.602.71-1.295 1.337-2.073 1.88-1.792 1.248-3.998 1.92-6.275 1.92-.222 0-.443-.007-.666-.02-.16-.01-.32-.02-.48-.037-.174-.018-.392-.04-.62-.052-.126-.008-.263-.013-.404-.013-.58 0-1.254.09-1.675.512-.172.173-.292.392-.355.65-.248 1.02.328 1.633.987 2.145.597.464 1.238.84 1.905 1.117 1.276.53 2.622.84 4 .92.232.014.465.02.697.02 2.703 0 5.3-.903 7.378-2.58 3.302-2.666 4.922-6.918 4.228-11.097-.08-.497-.376-.938-.81-1.217z"/></g></svg>