<svg xmlns="http://www.w3.org/2000/svg" width="48" height="48" viewBox="243.167 291.167 48 48"><path fill="#FFF" d="M261.923 328.988c-1.842-3.834-.86-6.03.555-8.1 1.55-2.267 1.95-4.51 1.95-4.51s1.22 1.585.73 4.062c2.154-2.396 2.56-6.216 2.235-7.68 4.868 3.402 6.948 10.768 4.145 16.227 14.91-8.437 3.71-21.06 1.76-22.482.65 1.422.772 3.83-.54 4.997-2.224-8.43-7.72-10.157-7.72-10.157.65 4.348-2.356 9.102-5.256 12.653-.102-1.733-.21-2.93-1.122-4.59-.205 3.15-2.61 5.717-3.263 8.872-.883 4.274.66 7.402 6.526 10.708z"/></svg>