<svg xmlns="http://www.w3.org/2000/svg" width="48" height="48" viewBox="0 0 48 48"><path fill="#FFF" d="M36.126 27.26c.026-1.26-.07-5.168-2.06-7.392-.83-.922-1.87-1.453-3.094-1.58-.297-.934-1.168-1.608-2.2-1.608h-.032v-1.573c0-1.73-1.406-3.135-3.14-3.135h-3.204c-1.73 0-3.135 1.404-3.135 3.135v1.573h-.033c-1.032 0-1.904.673-2.2 1.607-1.225.128-2.265.66-3.092 1.58-1.99 2.224-2.086 6.13-2.06 7.393-1.088.338-1.875 1.267-1.875 2.36 0 .023.003.044.004.063h1.478c0-.018-.005-.04-.005-.063 0-.563.583-1.022 1.3-1.022s1.305.46 1.305 1.022c0 .023-.005.044-.007.063h1.478c0-.018.005-.04.005-.063 0-.993-.654-1.853-1.59-2.254-.05-1.312.125-4.54 1.525-6.105.4-.44.87-.72 1.425-.84v6.283c0 1.276 1.032 2.312 2.31 2.312h.455v1.78c-.33.26-.537.626-.537 1.037 0 .41.207.773.537 1.033v3.163h2.09v-3.05c.423-.258.7-.676.7-1.144 0-.476-.277-.894-.7-1.148v-1.67h4.452v1.67c-.422.256-.7.673-.7 1.148 0 .468.277.886.7 1.143v3.05h2.092v-3.162c.328-.26.538-.624.538-1.033 0-.41-.21-.778-.538-1.036v-1.78h.456c1.276 0 2.31-1.036 2.31-2.314V20.42c.558.122 1.026.4 1.426.84 1.404 1.563 1.576 4.793 1.52 6.107-.936.4-1.587 1.26-1.587 2.253 0 .024.006.044.008.064h1.48c-.004-.02-.01-.037-.01-.064 0-.562.587-1.022 1.307-1.022.714 0 1.3.458 1.3 1.022 0 .024-.006.044-.008.064h1.478c0-.02.003-.037.003-.064 0-1.093-.783-2.022-1.874-2.36zm-14.764-.576c-.793 0-1.438-.646-1.438-1.438v-4.8c0-.794.644-1.437 1.438-1.437H26.64c.793 0 1.438.642 1.438 1.436v4.8c0 .794-.645 1.438-1.438 1.438H21.362z"/></svg>