<svg xmlns="http://www.w3.org/2000/svg" width="48" height="48" viewBox="0 0 48 48"><g fill="#FFF"><circle cx="22.197" cy="16.872" r=".776"/><path d="M25.056 25.337c-.738-.022-1.355.555-1.38 1.292-.026.737.552 1.354 1.29 1.38.738.025 1.355-.553 1.38-1.29.025-.74-.553-1.357-1.29-1.383zm-.064 1.843c-.28-.008-.5-.245-.49-.522.01-.28.244-.498.525-.49.28.01.5.244.488.524-.007.28-.242.5-.523.488z"/><path d="M33.25 28.22c.016-.032.028-.068.046-.105.31-.705.61-1.376.678-2.29.04-.563-.287-1.18-.78-1.472-.01-.006-.015-.008-.024-.015v-.184c-.004-.61-.234-1.005-.748-1.283-.093-.048-.184-.09-.273-.122-.148-.297-.386-.565-.605-.754-.214-.183-.644-.483-1.095-.445-.347.028-.697.218-1.003.385-.06.03-.117.063-.172.092-.056.03-.12.068-.183.11-.134-.15-.275-.293-.423-.426.937-.606 1.667-1.442 2.078-2.41.815-.07 1.463-1.014 1.463-2.17 0-1.204-.697-2.18-1.56-2.18-.086 0-.168.013-.25.03-1.006-1.628-2.973-2.744-5.24-2.788v-1.11h.536V10h-1.423v1.08h.537v1.112c-2.27.045-4.233 1.16-5.24 2.79-.082-.018-.165-.03-.25-.03-.862 0-1.56.976-1.56 2.18 0 1.156.646 2.1 1.462 2.168.41.97 1.14 1.805 2.08 2.412-.093.083-.184.17-.27.26-.572-.16-1.166-.27-1.81-.158-.457.08-1.847.326-2.292 1.34-.182.416-.2.88-.058 1.285-.293.208-.532.47-.68.747-.193.364-.226.74-.107 1.09-.623.477-.814 1.355-.868 1.99-.847.194-1.485.948-1.496 1.854h.846c.013-.584.49-1.056 1.076-1.056s1.064.472 1.075 1.057h.845c-.012-1.01-.81-1.838-1.81-1.895.05-.497.196-1.125.6-1.477.097.12.213.232.35.336.153.12.622.477 1.15.21.364-.183.55-.47.503-.76-.026-.166-.118-.31-.263-.412-.433-.3-1.235-.157-1.326-.14-.072.014-.137.033-.204.05-.044-.19-.012-.392.096-.598.103-.192.268-.373.47-.527.292.36.73.55 1.22.54.386-.013.836-.208 1.027-.5-.16.604-.247 1.248-.247 1.913 0 2.586 1.298 4.82 3.186 5.89v3.606c-.687.23-1.183.88-1.183 1.645h3.482c0-.815-.56-1.496-1.32-1.686v-3.14c.484.155.993.237 1.518.237.058 0 .115 0 .172-.004.057 0 .114.005.172.005.523 0 1.032-.082 1.515-.237v3.14c-.758.19-1.32.87-1.32 1.688h3.48c0-.765-.492-1.412-1.18-1.646v-3.606c1.887-1.066 3.185-3.3 3.185-5.887 0-.937-.172-1.828-.48-2.634.05.053.115.102.187.142.305.17.767.19 1.05.048.37-.184.648-.605.69-1.01.257.172.356.39.36.756v.025c-.217-.004-.42.054-.612.178-.302.197-.776.672-.636 1.203.076.286.28.473.555.513.33.05.71-.133.882-.422.127-.2.214-.44.27-.716.226.22.366.545.346.838-.062.826-.328 1.426-.636 2.123l-.062.14c-1.008-.213-2.006.41-2.258 1.412l.823.198c.145-.566.72-.916 1.29-.783.572.136.928.706.803 1.276l.82.195c.198-.863-.227-1.726-.98-2.12zm-16.383-1.723c.32-.06.764-.055.924.058.038.024.044.047.047.063.005.027-.07.128-.223.203-.115.06-.273.085-.592-.16-.068-.05-.13-.102-.183-.157.01 0 .017-.003.027-.006zm1.464-1.578c-.29.01-.546-.088-.73-.28.364-.15.77-.2 1.134-.08.125.042.18.08.204.1-.06.092-.34.253-.607.26zm1.143-.3c-.01-.173-.12-.41-.574-.56-.518-.17-1.075-.1-1.558.113-.065-.258-.043-.544.072-.806.224-.51.845-.847 1.9-1.033.457-.08.89-.025 1.327.08-.506.632-.906 1.38-1.167 2.205zm4.298-5.312h2.4v1.16h-2.4v-1.16zm-2.89-2.435c0-.73.59-1.32 1.317-1.32s1.32.59 1.32 1.32c0 .73-.59 1.32-1.32 1.32s-1.318-.592-1.318-1.32zm6.984 10.185c0 .068-.06.123-.13.12l-.355-.01c-.075.337-.217.656-.422.935l.242.26c.047.055.046.13-.006.18l-.44.412c-.023.022-.056.035-.093.034-.032 0-.062-.017-.086-.04l-.237-.25c-.294.195-.633.325-.982.38l-.01.35c-.004.07-.063.126-.133.122l-.602-.022c-.07-.002-.125-.058-.12-.13l.008-.34c-.348-.072-.68-.22-.968-.433l-.236.22c-.05.048-.13.046-.18-.004l-.41-.442c-.047-.048-.044-.13.005-.178l.23-.215c-.2-.305-.33-.646-.38-1.004l-.305-.01c-.068-.005-.124-.06-.12-.13l.02-.603c0-.07.06-.128.13-.124l.304.014c.074-.358.23-.695.452-.984l-.21-.224c-.022-.024-.035-.058-.034-.092s.016-.064.04-.087l.44-.412c.05-.047.132-.044.18.006l.217.232c.3-.19.64-.314.99-.36l.01-.31c.002-.07.06-.125.13-.122l.6.02c.07.003.13.063.126.13l-.012.32c.345.077.67.23.948.443l.247-.232c.026-.02.058-.035.093-.034.033 0 .064.015.087.04l.413.44c.05.052.045.13-.007.18l-.254.237c.19.294.312.626.362.97l.355.013c.07.003.124.06.122.13l-.02.605zm-.212-8.867c-.73 0-1.32-.59-1.32-1.318 0-.73.59-1.32 1.32-1.32.728 0 1.32.59 1.32 1.32 0 .73-.592 1.32-1.32 1.32zm2.528 5.61c-.208-.452-.46-.872-.75-1.253.032-.02.06-.037.087-.05l.18-.098c.264-.144.56-.304.796-.324.184-.015.457.107.708.32.103.087.195.183.274.28-.125.02-.248.056-.372.112-.162.073-.93.447-.922 1.013zm1.178.145c-.116.06-.393.056-.558-.037-.093-.05-.094-.095-.095-.11-.014-.127.285-.383.606-.527.12-.052.235-.078.353-.078.028 0 .056.002.086.005.006.026.01.054.012.078.016.24-.172.555-.404.67zm1.028 1.442c-.066.11-.237.19-.358.176-.047-.01-.093-.027-.12-.128-.05-.188.175-.472.414-.628.094-.06.19-.092.288-.093-.043.268-.117.497-.224.673z"/><circle cx="27.652" cy="16.872" r=".776"/></g></svg>